HIERARCHY
ROOT Hips
{
  OFFSET -296.958 88.3729 -247.386
  CHANNELS 6 Xposition Yposition Zposition Zrotation Xrotation Yrotation
  JOINT ToSpine
  {
    OFFSET -0.0105055 1.38907 -7.13956
    CHANNELS 3 Zrotation Xrotation Yrotation
    JOINT Spine
    {
      OFFSET 0.0105055 10 1
      CHANNELS 3 Zrotation Xrotation Yrotation
      JOINT Spine1
      {
        OFFSET 0 12 1.60637
        CHANNELS 3 Zrotation Xrotation Yrotation
        JOINT Neck
        {
          OFFSET 0 27 2.26658
          CHANNELS 3 Zrotation Xrotation Yrotation
          JOINT Head
          {
            OFFSET 0 9 2.12705
            CHANNELS 3 Zrotation Xrotation Yrotation
            End Site
            {
              OFFSET 0 11 2
            }
          }
        }
        JOINT LeftShoulder
        {
          OFFSET 8 19.6109 2.86452
          CHANNELS 3 Zrotation Xrotation Yrotation
          JOINT LeftArm
          {
            OFFSET 12 1 0.681055
            CHANNELS 3 Zrotation Xrotation Yrotation
            JOINT LeftForeArm
            {
              OFFSET 19 0 -1.52608
              CHANNELS 3 Zrotation Xrotation Yrotation
              JOINT LeftHand
              {
                OFFSET 23 0 0
                CHANNELS 3 Zrotation Xrotation Yrotation
                End Site
                {
                  OFFSET 10 0 0
                }
              }
            }
          }
        }
        JOINT RightShoulder
        {
          OFFSET -8 19.6109 2.86452
          CHANNELS 3 Zrotation Xrotation Yrotation
          JOINT RightArm
          {
            OFFSET -12 1 0.681055
            CHANNELS 3 Zrotation Xrotation Yrotation
            JOINT RightForeArm
            {
              OFFSET -19 0 -1.52608
              CHANNELS 3 Zrotation Xrotation Yrotation
              JOINT RightHand
              {
                OFFSET -23 0 0
                CHANNELS 3 Zrotation Xrotation Yrotation
                End Site
                {
                  OFFSET -10 0 0
                }
              }
            }
          }
        }
      }
    }
  }
  JOINT LeftUpLeg
  {
    OFFSET 9 -7.17245 0
    CHANNELS 3 Zrotation Xrotation Yrotation
    JOINT LeftLeg
    {
      OFFSET 0 -44.1113 0
      CHANNELS 3 Zrotation Xrotation Yrotation
      JOINT LeftFoot
      {
        OFFSET 0 -36.1829 0
        CHANNELS 3 Zrotation Xrotation Yrotation
        JOINT LeftToeBase
        {
          OFFSET 0 -4.84184 13
          CHANNELS 3 Zrotation Xrotation Yrotation
          End Site
          {
            OFFSET 0 1 6
          }
        }
      }
    }
  }
  JOINT RightUpLeg
  {
    OFFSET -9 -7.17245 0
    CHANNELS 3 Zrotation Xrotation Yrotation
    JOINT RightLeg
    {
      OFFSET 0 -44.0551 0
      CHANNELS 3 Zrotation Xrotation Yrotation
      JOINT RightFoot
      {
        OFFSET 0 -36.1469 0
        CHANNELS 3 Zrotation Xrotation Yrotation
        JOINT RightToeBase
        {
          OFFSET 0 -4.92256 13
          CHANNELS 3 Zrotation Xrotation Yrotation
          End Site
          {
            OFFSET 0 1 6
          }
        }
      }
    }
  }
}
MOTION
Frames:	13
Frame Time:	0.0333333
105.323 82.3878 216.384 1.37081 -3.06811 -135.697 0 0 0 0.584515 21.316 -5.44232 0.63965 -1.28724 -4.81501 9.16363 -21.4879 8.77312 -4.62428 -1.90321 10.0895 -22.5171 3.82238 -9.69815 -31.4398 0.568811 -23.7362 17.0366 -4.60116 -104.67 -16.8798 0.483453 -3.25762 19.9925 3.69856 10.3992 51.9088 11.3932 -25.2468 -20.6952 3.40749 81.0587 1.82542 0.0505044 3.19564 -0.773615 13.719 19.0943 0.0455271 40.8844 -19.409 16.9345 -41.8818 6.50294 1.94963 -24.0737 -10.9849 -1.06173 -52.4735 -10.4001 0.0304068 58.0891 16.1251 -29.9776 -1.69619 -0.453208 4.38917 -16.6797 -4.08944 
108.913 82.5074 218.485 1.26978 -4.05118 -137.416 0 0 0 -0.454867 22.0126 -4.24075 -1.01953 -1.43373 -3.12599 10.613 -21.8923 8.03572 -5.11426 -2.82694 9.59175 -26.2136 4.04062 -8.93528 -34.7249 5.99062 -12.156 16.4386 -3.18218 -100.655 -18.0576 0.434789 -2.73751 20.9113 3.91832 10.766 48.8904 4.89844 -18.3133 -23.007 2.63089 83.8303 1.17199 0.0303913 2.229 -0.24051 8.44816 21.5623 -0.00645167 46.3313 -18.4397 20.7722 -43.7911 8.42036 1.94037 -22.8682 -9.67955 1.45916 -54.0299 -6.82991 0.00227542 54.3861 13.9056 -26.1756 -3.55356 -0.818255 3.62823 -13.3901 -5.41048 
111.359 82.883 220.415 -0.434701 -3.19472 -137.725 0 0 0 0.462877 22.8871 -4.15761 -3.66669 -0.430761 -2.40074 11.2418 -20.2899 7.21127 -5.16002 -4.19707 9.05262 -28.2173 4.07487 -8.3318 -38.5567 9.79421 0.520524 18.5659 -2.71385 -98.024 -17.9707 0.285554 -1.80586 20.8237 4.00358 11.1176 48.2101 1.13801 -15.1044 -17.3153 0.752435 87.588 -2.83976 -0.110439 3.01651 -0.551522 7.38676 21.5355 0.00133268 48.2756 -17.2726 22.2041 -44.4764 9.17134 1.93271 -22.2036 -9.28127 0.323826 -52.5749 -7.75115 -0.00940763 52.7247 11.5761 -23.8872 -7.40788 -1.5744 3.63406 -13.4712 -3.43245 
113.51 83.4921 222.028 -2.31719 -1.33484 -138.176 0 0 0 1.1003 24.7638 -3.55697 -5.00873 0.37112 -1.55799 11.451 -18.2694 6.37653 -5.32419 -5.62204 8.52644 -28.0164 3.91328 -7.93377 -43.2343 10.9414 13.8884 18.4234 -2.89868 -98.6323 -16.7042 0.270839 -1.84347 19.8782 3.97134 11.4816 48.2923 0.526683 -14.1514 -6.62271 -0.241295 92.0773 -5.82158 -0.325436 6.15542 -0.520124 7.65737 22.1364 9.70323e-005 49.4389 -15.0196 24.3491 -43.4508 9.82823 1.86956 -23.1037 -7.69356 0.00220585 -50.414 -7.81467 -0.0210448 53.4025 8.53824 -22.0778 -7.30529 -1.42812 3.60124 -13.3117 -4.56736 
115.916 84.3188 222.859 -2.28748 -0.990981 -137.48 0 0 0 0.50442 25.6042 -2.38276 -4.24291 -0.218486 -0.679352 11.5784 -16.9393 4.99081 -5.80688 -6.65076 7.44477 -27.7094 3.74845 -7.5508 -45.3078 12.7538 25.8136 15.1783 -3.30364 -101.993 -16.1849 0.248552 -1.75107 19.4763 4.05473 12.0096 45.0147 -2.51252 -15.9518 -12.9799 -2.14662 99.23 -0.455407 -0.00335176 3.93176 0.951537 5.19723 21.3074 -0.00620068 51.1501 -14.3232 24.1699 -42.2397 9.45426 1.82332 -22.3447 -6.6982 0.251266 -50.4238 -7.04195 0.0117224 54.8154 3.75075 -24.4648 -4.58159 -0.981981 3.83015 -14.2621 -4.72729 
117.984 85.0742 223.423 -2.19638 -1.00789 -135.222 0 0 0 0.254877 25.2532 -1.77075 -3.43057 0.00107363 -0.35198 11.9583 -15.7019 3.56809 -6.04929 -7.46451 6.30344 -26.3237 3.56809 -7.45157 -47.0849 13.9408 34.0817 15.1087 -4.10017 -104.833 -15.1576 0.298461 -2.24311 19.0914 4.02739 12.121 43.432 -2.2367 -18.059 -12.4218 -3.01216 103.418 -2.78735 -0.0949365 3.2852 2.17757 2.80156 18.9718 -0.00174919 52.2181 -14.4969 24.4114 -40.6353 9.159 1.79039 -22.0636 -6.06022 -2.15786 -50.345 -8.79525 0.00940744 56.8355 3.9138 -28.7342 -2.90585 -0.752448 4.37292 -16.8141 -6.15514 
119.63 85.889 223.646 -2.64734 -0.383995 -133.611 0 0 0 0.276609 25.4452 -1.15246 -2.95161 0.309127 0.0702091 11.7819 -14.6046 2.22891 -6.50796 -7.75826 5.18604 -24.8204 3.4042 -7.44344 -47.9342 14.8731 39.9884 16.1931 -4.82418 -106.151 -14.8151 0.378363 -2.90795 18.2923 3.91046 12.1183 41.1057 -4.29537 -20.0833 -21.6719 -6.18335 105.166 3.00106 0.0450826 1.48824 2.87931 2.83894 17.4549 0.00141262 50.6908 -13.8511 24.6955 -40.171 9.15307 1.77779 -21.1848 -6.0088 -3.93902 -49.0173 -9.29297 -0.00196981 58.553 5.00169 -27.1959 -2.48 -0.600151 4.34097 -16.5827 -5.52401 
121.013 86.5145 223.493 -2.74388 -0.123635 -132.963 0 0 0 0.177811 25.2209 -0.113015 -2.85106 -0.100469 1.06394 11.5045 -13.2916 0.940059 -6.46683 -8.02655 4.02094 -23.701 3.4773 -8.06449 -48.5843 14.7519 43.7985 17.4979 -5.15758 -105.915 -14.7587 0.410172 -3.16529 17.9894 3.67242 11.339 39.9617 -5.2226 -21.7075 -25.9916 -7.75273 105.466 6.79345 0.0918505 1.51203 3.37298 3.06944 16.4577 -0.00297443 48.8411 -13.3425 25.0721 -39.831 9.21135 1.64022 -19.792 -4.37664 -4.4642 -48.1835 -8.36456 -0.00100336 59.5504 5.77664 -27.391 -1.70154 -0.413786 4.48492 -17.1879 -5.32575 
122.107 87.0604 223.07 -2.88809 -0.229319 -133.21 0 0 0 -0.484655 25.031 0.618759 -2.485 -0.988916 1.61407 9.87324 -12.3588 0.416035 -5.55134 -8.18411 3.15527 -24.7936 3.48548 -7.70608 -47.297 13.8151 46.3644 18.9571 -5.75412 -106.272 -14.4447 0.378311 -2.98634 17.0993 3.47596 11.0371 40.3585 -4.67978 -21.6469 -28.5425 -8.29512 104.855 8.68627 0.174417 2.30226 3.42487 3.06757 15.5553 0.00165089 47.6108 -12.372 23.9529 -39.1655 8.63255 1.5935 -18.9432 -4.09944 -4.67948 -47.4851 -7.36269 -0.00046522 59.834 6.25232 -28.8275 -1.38355 -0.356962 4.74533 -18.375 -5.57784 
122.975 87.6093 222.485 -2.94967 -0.100052 -133.297 0 0 0 -0.103363 24.8712 0.450437 -3.19537 -1.52862 1.60312 9.89698 -11.8282 0.400867 -5.55916 -8.65402 3.17282 -25.1137 3.39953 -7.32353 -46.8489 12.2665 47.6443 21.0185 -6.36032 -106.083 -14.0866 0.400208 -3.2379 17.5141 3.68182 11.6487 40.8022 -4.31223 -21.819 -29.1368 -8.29929 104.518 8.83322 0.257172 3.3371 3.91788 3.47646 14.6968 0.00311981 46.0934 -12.5212 21.46 -38.5225 7.57582 1.58067 -18.1942 -4.25281 -4.78143 -46.605 -6.5858 -0.000240011 59.6941 5.52153 -28.1076 -1.74373 -0.432257 4.90252 -19.0319 -5.43663 
123.636 88.0995 221.588 -2.91761 0.0206357 -134.238 0 0 0 0.138405 24.4296 0.52415 -3.95113 -1.72282 1.82968 9.8508 -11.8147 0.514074 -5.4544 -8.40215 3.26908 -25.0388 3.30581 -7.05232 -46.7988 11.547 46.5996 20.7667 -5.94099 -105.267 -14.0203 0.388807 -3.16074 17.467 3.76816 12.0266 42.5331 -3.66352 -22.3024 -28.3068 -8.25282 104.923 8.1641 0.281173 3.92844 4.65064 4.73712 15.6311 -0.000698283 43.674 -13.2027 20.2731 -37.6524 6.9769 1.56596 -17.7589 -4.24491 -4.29719 -45.8175 -5.35302 0.000443418 59.6362 4.64017 -26.1749 -3.59445 -0.838117 4.61823 -17.7538 -5.20835 
124.028 88.5614 220.402 -2.9758 -0.174478 -134.878 0 0 0 0.406469 23.2066 0.393449 -4.74389 -1.013 1.86157 9.54852 -12.4994 0.661707 -5.20962 -7.74962 3.28055 -25.8615 3.33603 -6.88625 -46.3833 10.6317 43.731 21.385 -5.59739 -103.987 -13.4799 0.347611 -2.94228 17.809 3.80029 11.9579 43.8332 -1.92822 -22.068 -24.6276 -6.99847 104.884 6.94296 0.271294 4.51537 4.95566 6.3429 16.2153 -0.000128581 40.6622 -13.8963 18.7596 -36.5789 6.24975 1.52652 -17.4043 -3.93311 -5.06364 -44.9246 -5.55334 -0.000538706 59.5784 4.29032 -25.0079 -5.09784 -1.12974 4.55821 -17.4283 -4.75802 
124.489 88.7173 218.981 -3.12049 -0.648365 -135.037 0 0 0 0.0298929 22.6127 0.133584 -4.96025 -1.04201 1.53335 9.77166 -13.0146 0.890564 -5.30241 -7.5325 3.52089 -26.7304 3.39986 -6.81573 -45.9942 10.0612 39.173 22.9071 -5.35887 -102.463 -12.7412 0.278567 -2.48445 18.4188 3.85768 11.8375 45.8097 -0.694469 -20.7013 -23.024 -5.60162 102.936 4.47729 0.219886 5.59339 5.53137 7.56305 17.0188 0.00481444 38.3419 -15.4213 17.2615 -35.995 5.64584 1.51998 -17.0871 -3.98842 -6.31015 -44.2558 -5.41205 -0.00182467 60.2906 3.07871 -23.6874 -7.67641 -1.61129 4.60142 -17.6075 -4.73108 
